  0
SECTION
  2
HEADER
  9
$ACADVER
  1
AC1009
  9
$INSBASE
 10
0.0
 20
0.0
 30
0.0
  9
$EXTMIN
 10
-0.2258064644730328
 20
-0.2375
 30
0.0
  9
$EXTMAX
 10
0.2258064644730329
 20
0.2375
 30
0.0
  9
$LIMMIN
 10
0.0
 20
0.0
  9
$LIMMAX
 10
0.6958215114687503
 20
0.6872770816202568
  9
$ORTHOMODE
 70
     0
  9
$REGENMODE
 70
     1
  9
$FILLMODE
 70
     1
  9
$QTEXTMODE
 70
     0
  9
$MIRRTEXT
 70
     0
  9
$DRAGMODE
 70
     2
  9
$LTSCALE
 40
1.0
  9
$OSMODE
 70
    53
  9
$ATTMODE
 70
     1
  9
$TEXTSIZE
 40
0.2
  9
$TRACEWID
 40
0.05
  9
$TEXTSTYLE
  7
STANDARD
  9
$CLAYER
  8
0
  9
$CELTYPE
  6
BYLAYER
  9
$CECOLOR
 62
   256
  9
$DIMSCALE
 40
1.0
  9
$DIMASZ
 40
0.0708661417322835
  9
$DIMEXO
 40
0.0625
  9
$DIMDLI
 40
0.38
  9
$DIMRND
 40
0.0
  9
$DIMDLE
 40
0.0
  9
$DIMEXE
 40
0.18
  9
$DIMTP
 40
0.0
  9
$DIMTM
 40
0.0
  9
$DIMTXT
 40
0.0708661417322835
  9
$DIMCEN
 40
0.09
  9
$DIMTSZ
 40
0.0
  9
$DIMTOL
 70
     0
  9
$DIMLIM
 70
     0
  9
$DIMTIH
 70
     1
  9
$DIMTOH
 70
     1
  9
$DIMSE1
 70
     0
  9
$DIMSE2
 70
     0
  9
$DIMTAD
 70
     0
  9
$DIMZIN
 70
     0
  9
$DIMBLK
  1

  9
$DIMASO
 70
     1
  9
$DIMSHO
 70
     1
  9
$DIMPOST
  1

  9
$DIMAPOST
  1

  9
$DIMALT
 70
     0
  9
$DIMALTD
 70
     2
  9
$DIMALTF
 40
25.399999999999999
  9
$DIMLFAC
 40
1.0
  9
$DIMTOFL
 70
     0
  9
$DIMTVP
 40
0.0
  9
$DIMTIX
 70
     0
  9
$DIMSOXD
 70
     0
  9
$DIMSAH
 70
     0
  9
$DIMBLK1
  1

  9
$DIMBLK2
  1

  9
$DIMSTYLE
  2
STANDARD
  9
$DIMCLRD
 70
     0
  9
$DIMCLRE
 70
     0
  9
$DIMCLRT
 70
     0
  9
$DIMTFAC
 40
1.0
  9
$DIMGAP
 40
0.09
  9
$LUNITS
 70
     2
  9
$LUPREC
 70
     4
  9
$SKETCHINC
 40
0.1
  9
$FILLETRAD
 40
0.0
  9
$AUNITS
 70
     0
  9
$AUPREC
 70
     0
  9
$MENU
  1
.
  9
$ELEVATION
 40
0.0
  9
$PELEVATION
 40
0.0
  9
$THICKNESS
 40
0.0
  9
$LIMCHECK
 70
     0
  9
$BLIPMODE
 70
     0
  9
$CHAMFERA
 40
0.0
  9
$CHAMFERB
 40
0.0
  9
$SKPOLY
 70
     0
  9
$TDCREATE
 40
2456477.5738936928
  9
$TDUPDATE
 40
2456477.620568797
  9
$TDINDWG
 40
0.0001906019
  9
$TDUSRTIMER
 40
0.0001892361
  9
$USRTIMER
 70
     1
  9
$ANGBASE
 50
0.0
  9
$ANGDIR
 70
     0
  9
$PDMODE
 70
     0
  9
$PDSIZE
 40
0.0
  9
$PLINEWID
 40
0.0
  9
$COORDS
 70
     1
  9
$SPLFRAME
 70
     0
  9
$SPLINETYPE
 70
     6
  9
$SPLINESEGS
 70
     8
  9
$ATTDIA
 70
     0
  9
$ATTREQ
 70
     1
  9
$HANDLING
 70
     1
  9
$HANDSEED
  5
173
  9
$SURFTAB1
 70
     6
  9
$SURFTAB2
 70
     6
  9
$SURFTYPE
 70
     6
  9
$SURFU
 70
     6
  9
$SURFV
 70
     6
  9
$UCSNAME
  2

  9
$UCSORG
 10
0.0
 20
0.0
 30
0.0
  9
$UCSXDIR
 10
1.0
 20
0.0
 30
0.0
  9
$UCSYDIR
 10
0.0
 20
1.0
 30
0.0
  9
$PUCSNAME
  2

  9
$PUCSORG
 10
0.0
 20
0.0
 30
0.0
  9
$PUCSXDIR
 10
1.0
 20
0.0
 30
0.0
  9
$PUCSYDIR
 10
0.0
 20
1.0
 30
0.0
  9
$USERI1
 70
     0
  9
$USERI2
 70
     0
  9
$USERI3
 70
     0
  9
$USERI4
 70
     0
  9
$USERI5
 70
     0
  9
$USERR1
 40
0.0
  9
$USERR2
 40
0.0
  9
$USERR3
 40
0.0
  9
$USERR4
 40
0.0
  9
$USERR5
 40
0.0
  9
$WORLDVIEW
 70
     1
  9
$SHADEDGE
 70
     3
  9
$SHADEDIF
 70
    70
  9
$TILEMODE
 70
     1
  9
$MAXACTVP
 70
    64
  9
$PLIMCHECK
 70
     0
  9
$PEXTMIN
 10
0.0
 20
0.0
 30
0.0
  9
$PEXTMAX
 10
0.6958215114687503
 20
0.6872770816202568
 30
0.0
  9
$PLIMMIN
 10
0.0
 20
0.0
  9
$PLIMMAX
 10
0.6958215114687503
 20
0.6872770816202568
  9
$UNITMODE
 70
     0
  9
$VISRETAIN
 70
     1
  9
$PLINEGEN
 70
     0
  9
$PSLTSCALE
 70
     1
  0
ENDSEC
  0
SECTION
  2
TABLES
  0
TABLE
  2
VPORT
 70
     1
  0
VPORT
  2
*ACTIVE
 70
     0
 10
0.0
 20
0.0
 11
1.0
 21
1.0
 12
0.3727865501065463
 22
0.0
 13
0.0
 23
0.0
 14
1.0
 24
1.0
 15
0.0
 25
0.0
 16
0.0
 26
0.0
 36
1.0
 17
0.0
 27
0.0
 37
0.0
 40
0.6872770816202568
 41
2.097254004576659
 42
50.0
 43
0.0
 44
0.0
 50
0.0
 51
0.0
 71
     0
 72
   100
 73
     1
 74
     1
 75
     0
 76
     0
 77
     0
 78
     0
  0
ENDTAB
  0
TABLE
  2
LTYPE
 70
    59
  0
LTYPE
  2
CONTINUOUS
 70
     0
  3
Solid line
 72
    65
 73
     0
 40
0.0
  0
LTYPE
  2
PHANTOM2
 70
     0
  3
Phantom (.5x) ___ _ _ ___ _ _ ___ _ _ ___ _ _
 72
    65
 73
     6
 40
1.25
 49
0.625
 49
-0.125
 49
0.125
 49
-0.125
 49
0.125
 49
-0.125
  0
ENDTAB
  0
TABLE
  2
LAYER
 70
     1
  0
LAYER
  2
0
 70
     0
 62
     7
  6
CONTINUOUS
  0
ENDTAB
  0
TABLE
  2
STYLE
 70
     3
  0
STYLE
  2
STANDARD
 70
     0
 40
0.0
 41
1.0
 50
0.0
 71
     0
 42
0.2
  3
txt
  4

  0
ENDTAB
  0
TABLE
  2
VIEW
 70
     0
  0
ENDTAB
  0
TABLE
  2
UCS
 70
     0
  0
ENDTAB
  0
TABLE
  2
APPID
 70
     4
  0
APPID
  2
ACAD
 70
     0
  0
APPID
  2
ACADANNOTATIVE
 70
     0
  0
APPID
  2
ACAD_MLEADERVER
 70
     0
  0
APPID
  2
ACAD_NAV_VCDISPLAY
 70
     0
  0
ENDTAB
  0
TABLE
  2
DIMSTYLE
 70
     2
  0
DIMSTYLE
  2
STANDARD
 70
     0
  3

  4

  5

  6

  7

 40
1.0
 41
0.18
 42
0.0625
 43
0.38
 44
0.18
 45
0.0
 46
0.0
 47
0.0
 48
0.0
140
0.18
141
0.09
142
0.0
143
25.399999999999999
144
1.0
145
0.0
146
1.0
147
0.09
 71
     0
 72
     0
 73
     1
 74
     1
 75
     0
 76
     0
 77
     0
 78
     0
170
     0
171
     2
172
     0
173
     0
174
     0
175
     0
176
     0
177
     0
178
     0
  0
ENDTAB
  0
ENDSEC
  0
SECTION
  2
BLOCKS
  0
BLOCK
  8
0
  2
$MODEL_SPACE
 70
     0
 10
0.0
 20
0.0
 30
0.0
  3
$MODEL_SPACE
  1

  0
ENDBLK
  5
73
  8
0
  0
BLOCK
 67
     1
  8
0
  2
$PAPER_SPACE
 70
     0
 10
0.0
 20
0.0
 30
0.0
  3
$PAPER_SPACE
  1

  0
ENDBLK
  5
6F
 67
     1
  8
0
  0
ENDSEC
  0
SECTION
  2
ENTITIES
  0
POLYLINE
  5
B7
  8
0
 66
     1
 10
0.0
 20
0.0
 30
0.0
 70
     1
  0
VERTEX
  5
B8
  8
0
 10
-0.0544435501341481
 20
0.1794217095247687
 30
0.0
 42
0.1149978949809877
  0
VERTEX
  5
B9
  8
0
 10
-0.128161983371808
 20
0.1368603522507684
 30
0.0
 42
-0.3303319287713708
  0
VERTEX
  5
BB
  8
0
 10
-0.1518325949314675
 20
0.1341382817484949
 30
0.0
  0
VERTEX
  5
BC
  8
0
 10
-0.1855556023245755
 20
0.1536082691447895
 30
0.0
  0
VERTEX
  5
BD
  8
0
 10
-0.2258064644730328
 20
0.0838917308552106
 30
0.0
  0
VERTEX
  5
BE
  8
0
 10
-0.1920834570799248
 20
0.0644217434589159
 30
0.0
 42
-0.3303319287713706
  0
VERTEX
  5
BF
  8
0
 10
-0.1826055335059562
 20
0.0425613572740005
 30
0.0
 42
0.1149978949809877
  0
VERTEX
  5
C0
  8
0
 10
-0.1826055335059562
 20
-0.0425613572740003
 30
0.0
 42
-0.3303319287713706
  0
VERTEX
  5
C1
  8
0
 10
-0.1920834570799248
 20
-0.0644217434589158
 30
0.0
  0
VERTEX
  5
C2
  8
0
 10
-0.2258064644730328
 20
-0.0838917308552105
 30
0.0
  0
VERTEX
  5
C3
  8
0
 10
-0.1855556023245756
 20
-0.1536082691447895
 30
0.0
  0
VERTEX
  5
C4
  8
0
 10
-0.1518325949314676
 20
-0.1341382817484948
 30
0.0
 42
-0.3303319287713708
  0
VERTEX
  5
C5
  8
0
 10
-0.1281619833718081
 20
-0.1368603522507683
 30
0.0
 42
0.1149978949809878
  0
VERTEX
  5
C6
  8
0
 10
-0.0544435501341481
 20
-0.1794217095247687
 30
0.0
 42
-0.3303319287713707
  0
VERTEX
  5
C7
  8
0
 10
-0.0402508621484573
 20
-0.1985600252074108
 30
0.0
  0
VERTEX
  5
C8
  8
0
 10
-0.0402508621484573
 20
-0.2375
 30
0.0
  0
VERTEX
  5
C9
  8
0
 10
0.0402508621484573
 20
-0.2375
 30
0.0
  0
VERTEX
  5
CA
  8
0
 10
0.0402508621484573
 20
-0.1985600252074108
 30
0.0
 42
-0.3303319287713707
  0
VERTEX
  5
CB
  8
0
 10
0.0544435501341481
 20
-0.1794217095247687
 30
0.0
 42
0.1149978949809877
  0
VERTEX
  5
CC
  8
0
 10
0.128161983371808
 20
-0.1368603522507684
 30
0.0
 42
-0.3303319287713708
  0
VERTEX
  5
CD
  8
0
 10
0.1518325949314675
 20
-0.1341382817484949
 30
0.0
  0
VERTEX
  5
CE
  8
0
 10
0.1855556023245755
 20
-0.1536082691447896
 30
0.0
  0
VERTEX
  5
CF
  8
0
 10
0.2258064644730328
 20
-0.0838917308552106
 30
0.0
  0
VERTEX
  5
D0
  8
0
 10
0.1920834570799248
 20
-0.064421743458916
 30
0.0
 42
-0.3303319287713708
  0
VERTEX
  5
D1
  8
0
 10
0.1826055335059562
 20
-0.0425613572740005
 30
0.0
 42
0.1149978949809878
  0
VERTEX
  5
D2
  8
0
 10
0.1826055335059562
 20
0.0425613572740003
 30
0.0
 42
-0.3303319287713707
  0
VERTEX
  5
D3
  8
0
 10
0.1920834570799249
 20
0.0644217434589157
 30
0.0
  0
VERTEX
  5
D4
  8
0
 10
0.2258064644730329
 20
0.0838917308552104
 30
0.0
  0
VERTEX
  5
D5
  8
0
 10
0.1855556023245757
 20
0.1536082691447893
 30
0.0
  0
VERTEX
  5
D6
  8
0
 10
0.1518325949314677
 20
0.1341382817484947
 30
0.0
 42
-0.330331928771371
  0
VERTEX
  5
D7
  8
0
 10
0.1281619833718081
 20
0.1368603522507683
 30
0.0
 42
0.1149978949809878
  0
VERTEX
  5
D8
  8
0
 10
0.0544435501341481
 20
0.1794217095247687
 30
0.0
 42
-0.3303319287713706
  0
VERTEX
  5
D9
  8
0
 10
0.0402508621484573
 20
0.1985600252074108
 30
0.0
  0
VERTEX
  5
DA
  8
0
 10
0.0402508621484573
 20
0.2375
 30
0.0
  0
VERTEX
  5
DB
  8
0
 10
-0.0402508621484573
 20
0.2375
 30
0.0
  0
VERTEX
  5
DC
  8
0
 10
-0.0402508621484573
 20
0.1985600252074108
 30
0.0
 42
-0.3303319287713706
  0
SEQEND
  5
BA
  8
0
  0
CIRCLE
  5
DD
  8
0
 10
0.0
 20
0.0
 30
0.0
 40
0.1
  0
ENDSEC
  0
EOF
